<svg width="204" height="522" viewBox="0 0 204 522" fill="none" xmlns="http://www.w3.org/2000/svg">
<ellipse cx="100.424" cy="120.501" rx="47.8944" ry="22.7885" fill="#4A4A4A"/>
<ellipse cx="101" cy="104.923" rx="24" ry="12" fill="#E7E7E7"/>
<rect x="86" y="59.9235" width="30" height="55" fill="#ECE1BA"/>
<path d="M132.867 41.4061C132.867 59.5453 123.208 73.9006 101.596 73.9006C79.9829 73.9006 70.1492 61.467 70.1492 43.3278C64.5588 22.0142 83.2519 4.54399 101.246 4.54399C120.987 4.54399 137.409 22.3636 132.867 41.4061Z" fill="#4A4A4A"/>
<ellipse cx="101.596" cy="40.882" rx="27.6029" ry="25.6812" fill="#ECE1BA"/>
<rect x="79.2337" y="25.3335" width="44.3742" height="54.8563" fill="#ECE1BA"/>
<ellipse cx="101.421" cy="77.5693" rx="22.1871" ry="22.5365" fill="#ECE1BA"/>
<path d="M130.247 61.6715C124.5 92.9235 130.247 88.4235 117.319 89.4235C110.179 89.4235 104.391 71.8989 104.391 61.6715C104.391 51.444 110.179 43.1531 117.319 43.1531C124.459 43.1531 130.247 51.444 130.247 61.6715Z" fill="url(#paint0_linear_2_117)"/>
<path d="M74 61.4418C79 92.4235 74 88.1938 86.9279 89.1938C94.0678 89.1938 99.8559 71.6693 99.8559 61.4418C99.8559 51.2144 94.0678 42.9235 86.9279 42.9235C79.788 42.9235 74 51.2144 74 61.4418Z" fill="url(#paint1_linear_2_117)"/>
<path d="M98.5 43.9235C96.5 44.4235 90.5 42.4235 85 42.4235C82.5 43.9235 77.3333 46.7568 77 47.9234C81.8333 49.7568 92.4 52.7234 96 49.9234C99.6 47.1234 99 44.9235 98.5 43.9235Z" fill="url(#paint2_linear_2_117)"/>
<path d="M118.5 88.9235C123 96.4235 115.479 97.9235 102.5 97.9235C89.5213 97.9235 92.5 93.9235 87 85.9235C59 47.4235 85 48.4235 102.5 52.9235C115.479 52.9235 145.5 41.4235 118.5 88.9235Z" fill="url(#paint3_linear_2_117)"/>
<path d="M105 43.9235C104.738 46.5386 107.565 44.6434 111.5 43.4235C115 42.9235 115.5 42.4235 118 42.4235C119.5 42.9235 129.5 46.4235 126.254 48.1915C121.42 50.0248 110.854 52.9915 107.254 50.1915C103.654 47.3915 104.5 45.0901 105 43.9235Z" fill="url(#paint4_linear_2_117)"/>
<ellipse cx="101.246" cy="17.6466" rx="7.33747" ry="12.5785" fill="black"/>
<path d="M114 81.9235C111.5 84.4235 106.5 84.4235 102.5 83.9235C94.4919 83.9235 90 82.9235 89 81.4235C89 77.8336 94.9919 72.9235 103 72.9235C111.008 72.9235 114 78.3336 114 81.9235Z" fill="#DACFA8"/>
<path d="M106.25 64.3814C106.25 70.7095 109.505 76.5339 102.452 75.8394C95.6697 76.7075 98.6539 70.7095 98.6539 64.3814C98.6539 58.0534 101.095 52.9235 102.452 52.9235C103.808 52.9235 106.25 58.0534 106.25 64.3814Z" fill="url(#paint5_linear_2_117)"/>
<path d="M125 84.4235C123.5 98.9235 119.484 98.1658 101.421 98.9235C89.5 99.4235 76.5 95.9235 78.5 83.4235C78.5 75.9941 94.5 83.3499 101.421 79.9235C107.5 82.3499 125 76.9941 125 84.4235Z" fill="url(#paint6_linear_2_117)"/>
<path d="M47.8944 127.784C47.8944 116.613 57.4856 107.852 68.6112 108.862L98.707 111.592C99.8491 111.696 100.998 111.696 102.141 111.592L132.236 108.862C143.362 107.852 152.953 116.613 152.953 127.784V304.28C152.953 314.773 144.447 323.28 133.953 323.28H66.8944C56.401 323.28 47.8944 314.773 47.8944 304.28V127.784Z" fill="#E6E6E6"/>
<rect x="60.2542" y="334.867" width="29.3546" height="182.308" fill="#ECE1BA"/>
<rect x="111.239" y="334.867" width="29.3546" height="182.308" fill="#ECE1BA"/>
<path d="M47.8944 297.015H93.4714V509.45H57.9368L47.8944 297.015Z" fill="#3A3A3A"/>
<path d="M108.921 297.015H154.498L146.773 509.45H108.921V297.015Z" fill="#3A3A3A"/>
<path d="M48.2848 279.248H156.816V322.7L153.715 337.184H49.4476L47.1219 322.7L48.2848 279.248Z" fill="#3A3A3A"/>
<path d="M37.8249 122.042C37.3865 118.409 39.4686 114.942 42.8813 113.622L67.1356 104.24C72.3778 102.213 78.0215 106.081 78.0215 111.702V298.99C78.0215 305.815 70.0234 309.506 64.8301 305.076L47.0165 289.883C45.1339 288.278 44.1002 285.891 44.2168 283.419L47.8628 206.145C47.8838 205.699 47.8675 205.252 47.814 204.809L37.8249 122.042Z" fill="#4A4A4A"/>
<path d="M163.795 122.042C164.234 118.409 162.151 114.942 158.739 113.622L134.484 104.24C129.242 102.213 123.598 106.081 123.598 111.702V298.99C123.598 305.815 131.597 309.506 136.79 305.076L154.603 289.883C156.486 288.278 157.52 285.891 157.403 283.419L153.757 206.145C153.736 205.699 153.752 205.252 153.806 204.809L163.795 122.042Z" fill="#4A4A4A"/>
<path d="M96.5613 521.423C96.5613 516.814 94.1604 512.393 89.8867 509.133C85.613 505.874 79.8167 509.133 73.7728 509.133C67.7289 509.133 61.9326 505.874 57.6589 509.133C53.3853 512.393 50.9843 516.814 50.9843 521.423L73.7728 521.423H96.5613Z" fill="#4A4A4A"/>
<path d="M149.863 521.423C149.863 516.814 147.462 512.393 143.189 509.133C138.915 505.874 133.119 507.519 127.075 507.519C121.031 507.519 115.234 505.874 110.961 509.133C106.687 512.393 104.286 516.814 104.286 521.423L127.075 521.423H149.863Z" fill="#4A4A4A"/>
<rect width="27.6918" height="108.344" rx="11" transform="matrix(0.932193 -0.361961 0.42608 0.904685 131.188 122.467)" fill="#4A4A4A"/>
<rect width="27.513" height="83.9142" rx="11" transform="matrix(0.929294 0.36934 -0.429296 0.903164 177.597 196.645)" fill="#4A4A4A"/>
<rect width="27.6918" height="108.344" rx="11" transform="matrix(-0.932193 -0.361961 -0.42608 0.904685 71.9774 122.413)" fill="#4A4A4A"/>
<rect width="27.513" height="83.9142" rx="11" transform="matrix(-0.929294 0.36934 0.429296 0.903164 27.8851 196.591)" fill="#4A4A4A"/>
<path d="M100.279 114.556L76.5643 125.67L77.5981 101.46L100.279 114.556Z" fill="white"/>
<path d="M100.498 114.583L124.697 125.677L123.663 101.467L100.498 114.583Z" fill="white"/>
<path d="M95.784 130.965C97.4637 135.147 103.384 135.147 105.064 130.965L108.371 122.729C109.691 119.444 107.272 115.866 103.731 115.866H97.1162C93.5759 115.866 91.157 119.444 92.4765 122.729L95.784 130.965Z" fill="#4A4A4A"/>
<path d="M97.5361 277.492C98.3573 280.407 102.49 280.407 103.311 277.492L106.04 267.804C106.579 265.89 105.141 263.991 103.152 263.991H97.6954C95.707 263.991 94.2687 265.89 94.8078 267.804L97.5361 277.492Z" fill="#4A4A4A"/>
<path d="M96.1328 135.432C96.1563 133.792 97.4924 132.474 99.1325 132.474H101.715C103.355 132.474 104.691 133.792 104.715 135.432L106.56 264.617C106.584 266.291 105.234 267.66 103.561 267.66H97.287C95.6134 267.66 94.2634 266.291 94.2873 264.617L96.1328 135.432Z" fill="#4A4A4A"/>
<path d="M132.12 19.9235C132.12 30.4169 118.465 38.9235 101.62 38.9235C84.7757 38.9235 69.5 36.9169 69.5 26.4235C71 6.42346 84.7757 0.923462 101.62 0.923462C118.465 0.923462 132.12 9.43005 132.12 19.9235Z" fill="#4A4A4A"/>
<path d="M134.12 22.9235C134.12 33.4169 119.465 41.4235 102.62 41.4235C116.12 31.4235 81.6204 35.4169 81.6204 24.9235C81.6204 14.4301 91.7757 5.92346 108.62 5.92346C125.465 5.92346 134.12 12.4301 134.12 22.9235Z" fill="#4A4A4A"/>
<path d="M98 50.4235C98 54.0133 93.5228 57.9235 88 57.9235C82.4772 57.9235 76.5 53.0133 76.5 49.4235C76.5 45.8336 82.4772 44.9235 88 44.9235C93.5228 44.9235 98 46.8336 98 50.4235Z" fill="url(#paint7_linear_2_117)"/>
<path d="M105 50.4235C105 54.0133 109.477 57.9235 115 57.9235C120.523 57.9235 126.5 53.0133 126.5 49.4235C126.5 45.8336 120.523 44.9235 115 44.9235C109.477 44.9235 105 46.8336 105 50.4235Z" fill="url(#paint8_linear_2_117)"/>
<path d="M108.764 27.5739C105.012 37.3734 91.2308 42.9473 75.5 36.9235C91.6834 32.4125 68.979 26.223 72.7315 16.4235C76.4841 6.62399 87.3896 5.39962 103.12 11.4235C118.851 17.4473 112.517 17.7744 108.764 27.5739Z" fill="#4A4A4A"/>
<path d="M93.5 81.8133C97 82.3133 107.252 83.3755 111.703 80.8677" stroke="#864F48" stroke-width="3"/>
<path d="M90 81.8133C95.1667 80.6467 106.9 78.8133 112.5 80.8133" stroke="#E6D1BE" stroke-width="2" stroke-linecap="round"/>
<path d="M90 81.8133C95.0519 83.048 106.524 84.9881 112 82.8716" stroke="#E6D1BE" stroke-width="2" stroke-linecap="round"/>
<path d="M98 43.4235C94.5 42.4235 91 41.9235 85 41.4235C84.3333 41.7568 80 43.9235 78 45.4235" stroke="#767161" stroke-opacity="0.5" stroke-width="2" stroke-linecap="round"/>
<path d="M106 44.4235C109.5 43.4235 112 41.9235 118 41.4235C118.667 41.7568 126.1 44.6235 126.5 45.4235" stroke="#767161" stroke-opacity="0.5" stroke-width="2" stroke-linecap="round"/>
<path d="M97 50.0054C97 51.3852 93.5151 52.9202 89.2162 52.9202C84.9174 52.9202 81 53.0508 81 51.671C81 50.2912 84.9174 47.9235 89.2162 47.9235C93.5151 47.9235 97 48.6256 97 50.0054Z" fill="white"/>
<path d="M91.9754 49.4235C91.9754 50.8042 90.6378 52.4235 88.9877 52.4235C87.3376 52.4235 86 50.8042 86 49.4235C86 48.0428 88 47.9235 88.9877 47.9235C92.4734 47.9235 91.9754 48.0428 91.9754 49.4235Z" fill="#4A4A4A"/>
<path d="M108 50.0054C108 51.3852 111.485 52.9202 115.784 52.9202C120.083 52.9202 124 53.0508 124 51.671C124 50.2912 120.083 47.9235 115.784 47.9235C111.485 47.9235 108 48.6256 108 50.0054Z" fill="white"/>
<path d="M113.025 49.4235C113.025 50.8042 114.362 52.4235 116.012 52.4235C117.662 52.4235 119 50.8042 119 49.4235C119 48.0428 117 47.9235 116.012 47.9235C112.527 47.9235 113.025 48.0428 113.025 49.4235Z" fill="#4A4A4A"/>
<defs>
<linearGradient id="paint0_linear_2_117" x1="117.319" y1="43.1531" x2="117.319" y2="89.4235" gradientUnits="userSpaceOnUse">
<stop stop-color="#ECE1BA"/>
<stop offset="0.9999" stop-color="#D7CBA4"/>
<stop offset="1" stop-color="#ECE1BA" stop-opacity="0"/>
</linearGradient>
<linearGradient id="paint1_linear_2_117" x1="86.9279" y1="42.9235" x2="86.9279" y2="89.1938" gradientUnits="userSpaceOnUse">
<stop stop-color="#ECE1BA"/>
<stop offset="0.9999" stop-color="#D7CBA4"/>
<stop offset="1" stop-color="#ECE1BA" stop-opacity="0"/>
</linearGradient>
<linearGradient id="paint2_linear_2_117" x1="88.1268" y1="41.6555" x2="88.1268" y2="51.0731" gradientUnits="userSpaceOnUse">
<stop stop-color="#938C72"/>
<stop offset="1" stop-color="#ECE1BA" stop-opacity="0"/>
</linearGradient>
<linearGradient id="paint3_linear_2_117" x1="102.5" y1="52.9235" x2="102.5" y2="97.9234" gradientUnits="userSpaceOnUse">
<stop stop-color="#DDCD95" stop-opacity="0"/>
<stop offset="1" stop-color="#C0B383"/>
</linearGradient>
<linearGradient id="paint4_linear_2_117" x1="115.127" y1="41.9235" x2="115.127" y2="51.3411" gradientUnits="userSpaceOnUse">
<stop stop-color="#938C72"/>
<stop offset="1" stop-color="#ECE1BA" stop-opacity="0"/>
</linearGradient>
<linearGradient id="paint5_linear_2_117" x1="102.5" y1="52.9235" x2="102.5" y2="75.9235" gradientUnits="userSpaceOnUse">
<stop stop-color="#FAF0CD"/>
<stop offset="1" stop-color="#CBBE8F"/>
</linearGradient>
<linearGradient id="paint6_linear_2_117" x1="101.421" y1="75.997" x2="101.421" y2="102.901" gradientUnits="userSpaceOnUse">
<stop stop-color="#DCD1AA"/>
<stop offset="0.9999" stop-color="#D7CBA4"/>
<stop offset="1" stop-color="#ECE1BA" stop-opacity="0"/>
</linearGradient>
<linearGradient id="paint7_linear_2_117" x1="88" y1="44.9235" x2="88" y2="57.9235" gradientUnits="userSpaceOnUse">
<stop stop-color="#C3BA9A" stop-opacity="0"/>
<stop offset="1" stop-color="#CFCBB6"/>
</linearGradient>
<linearGradient id="paint8_linear_2_117" x1="115" y1="44.9235" x2="115" y2="57.9235" gradientUnits="userSpaceOnUse">
<stop stop-color="#C3BA9A" stop-opacity="0"/>
<stop offset="1" stop-color="#CFCBB6"/>
</linearGradient>
</defs>
</svg>
