<svg width="182" height="526" viewBox="0 0 182 526" fill="none" xmlns="http://www.w3.org/2000/svg">
<ellipse cx="100.424" cy="124.501" rx="47.8944" ry="22.7885" fill="#4A4A4A"/>
<ellipse cx="101" cy="108.923" rx="24" ry="12" fill="#E7E7E7"/>
<rect x="85.8837" y="61.0935" width="30" height="55" transform="rotate(11.351 85.8837 61.0935)" fill="#ECE1BA"/>
<path d="M135.479 52.1626C131.909 69.947 119.613 82.1205 98.4233 77.8667C77.2334 73.6129 70.0392 59.487 73.6094 41.7027C72.3232 19.7056 94.0891 6.25633 111.731 9.79795C131.087 13.6834 143.68 34.3866 135.479 52.1626Z" fill="#4A4A4A"/>
<ellipse cx="104.922" cy="45.4939" rx="27.6029" ry="25.6812" transform="rotate(11.351 104.922 45.4939)" fill="#ECE1BA"/>
<rect x="86.0578" y="25.8483" width="44.3742" height="54.8563" transform="rotate(11.351 86.0578 25.8483)" fill="#ECE1BA"/>
<ellipse cx="97.5299" cy="81.4293" rx="22.1871" ry="22.5365" transform="rotate(11.351 97.5299 81.4293)" fill="#ECE1BA"/>
<path d="M128.921 71.5159C117.136 101.026 123.656 97.7446 110.784 96.1806C103.783 94.7753 101.558 76.4543 103.571 66.4269C105.584 56.3996 112.89 49.41 119.891 50.8152C126.891 52.2205 130.934 61.4885 128.921 71.5159Z" fill="url(#paint0_linear_3_121)"/>
<path d="M73.8196 60.2203C72.624 91.58 68.5543 86.449 81.0325 89.9739C88.0328 91.3792 97.1568 75.3366 99.1697 65.3092C101.183 55.2819 97.1397 46.0139 90.1394 44.6086C83.1392 43.2033 75.8325 50.1929 73.8196 60.2203Z" fill="url(#paint1_linear_3_121)"/>
<path d="M101 49.4235C98.9407 49.52 93.74 44.8215 88.3476 43.739C85.6013 44.7176 79.978 46.4786 79.4216 47.5568C83.7995 50.3056 93.5756 55.2939 97.6563 53.2572C101.737 51.2206 101.293 50.5023 101 49.4235Z" fill="url(#paint2_linear_3_121)"/>
<path d="M112.04 95.9228C114.976 104.162 107.307 104.152 94.5819 101.598C81.857 99.0432 85.5648 95.7078 81.7469 86.7817C61.8721 43.5238 87.1667 49.6216 103.439 57.4779C116.164 60.0323 147.861 54.666 112.04 95.9228Z" fill="url(#paint3_linear_3_121)"/>
<path d="M106.5 50.5726C105.729 53.0851 110.283 50.6953 114.382 50.2737C117.912 50.4723 118.049 49.7816 120.5 50.2737C121.872 51.0591 131.439 56.7577 127.908 57.8522C122.809 58.6984 111.865 59.5273 108.886 56.0735C105.908 52.6197 105.78 51.618 106.5 50.5726Z" fill="url(#paint4_linear_3_121)"/>
<ellipse cx="109.153" cy="22.6443" rx="7.33747" ry="12.5785" transform="rotate(11.351 109.153 22.6443)" fill="black"/>
<path d="M109.006 88.1741C106.063 90.1331 101.161 89.149 97.3373 87.8715C89.4858 86.2954 85.2786 84.4309 84.5934 82.7634C85.3 79.2437 92.1411 75.6089 99.9925 77.1851C107.844 78.7613 109.713 84.6544 109.006 88.1741Z" fill="#DACFA8"/>
<path d="M104.86 69.4498C103.615 75.6541 105.66 82.0053 98.8812 79.9362C92.0608 79.4523 96.1672 74.1591 97.4126 67.9548C98.6581 61.7505 102.062 57.2015 103.392 57.4684C104.721 57.7354 106.106 63.2455 104.86 69.4498Z" fill="url(#paint5_linear_3_121)"/>
<path d="M119.299 92.7902C114.974 106.711 111.186 105.178 93.327 102.366C81.5409 100.51 69.4841 94.5195 73.9052 82.6576C75.3674 75.3736 89.6067 85.7346 97.0666 83.7374C102.549 87.3129 120.761 85.5061 119.299 92.7902Z" fill="url(#paint6_linear_3_121)"/>
<path d="M47.8944 131.784C47.8944 120.613 57.4856 111.852 68.6112 112.862L98.707 115.592C99.8491 115.696 100.998 115.696 102.141 115.592L132.236 112.862C143.362 111.852 152.953 120.613 152.953 131.784V308.28C152.953 318.773 144.447 327.28 133.953 327.28H66.8944C56.401 327.28 47.8944 318.773 47.8944 308.28V131.784Z" fill="#E6E6E6"/>
<rect x="60.2542" y="338.867" width="29.3546" height="182.308" fill="#ECE1BA"/>
<rect x="111.239" y="338.867" width="29.3546" height="182.308" fill="#ECE1BA"/>
<path d="M47.8944 301.015H93.4714V513.45H57.9368L47.8944 301.015Z" fill="#3A3A3A"/>
<path d="M108.921 301.015H154.498L146.773 513.45H108.921V301.015Z" fill="#3A3A3A"/>
<path d="M48.2848 283.248H156.816V326.7L153.715 341.184H49.4476L47.1219 326.7L48.2848 283.248Z" fill="#3A3A3A"/>
<path d="M37.8249 126.042C37.3864 122.409 39.4686 118.942 42.8813 117.622L67.1355 108.24C72.3778 106.213 78.0215 110.081 78.0215 115.702V302.989C78.0215 309.815 70.0234 313.506 64.8301 309.076L47.0165 293.883C45.1339 292.278 44.1002 289.891 44.2168 287.419L47.8628 210.145C47.8838 209.699 47.8675 209.252 47.814 208.809L37.8249 126.042Z" fill="#4A4A4A"/>
<path d="M163.795 126.042C164.234 122.409 162.151 118.942 158.739 117.622L134.484 108.24C129.242 106.213 123.598 110.081 123.598 115.702V302.989C123.598 309.815 131.597 313.506 136.79 309.076L154.603 293.883C156.486 292.278 157.52 289.891 157.403 287.419L153.757 210.145C153.736 209.699 153.752 209.252 153.806 208.809L163.795 126.042Z" fill="#4A4A4A"/>
<path d="M96.5613 525.423C96.5613 520.814 94.1604 516.393 89.8867 513.133C85.613 509.874 79.8167 513.133 73.7728 513.133C67.7289 513.133 61.9326 509.874 57.6589 513.133C53.3853 516.393 50.9843 520.814 50.9843 525.423L73.7728 525.423H96.5613Z" fill="#4A4A4A"/>
<path d="M149.863 525.423C149.863 520.814 147.462 516.393 143.189 513.133C138.915 509.874 133.119 511.519 127.075 511.519C121.031 511.519 115.234 509.874 110.961 513.133C106.687 516.393 104.286 520.814 104.286 525.423L127.075 525.423H149.863Z" fill="#4A4A4A"/>
<path d="M100.279 118.556L76.5643 129.67L77.5981 105.46L100.279 118.556Z" fill="white"/>
<path d="M100.498 118.583L124.697 129.677L123.663 105.467L100.498 118.583Z" fill="white"/>
<path d="M95.784 134.965C97.4637 139.147 103.384 139.147 105.064 134.965L108.371 126.729C109.691 123.444 107.272 119.866 103.731 119.866H97.1162C93.5759 119.866 91.157 123.444 92.4765 126.729L95.784 134.965Z" fill="#4A4A4A"/>
<path d="M97.5361 281.492C98.3573 284.407 102.49 284.407 103.311 281.492L106.04 271.804C106.579 269.89 105.141 267.991 103.152 267.991H97.6954C95.707 267.991 94.2687 269.89 94.8078 271.804L97.5361 281.492Z" fill="#4A4A4A"/>
<path d="M96.1328 139.432C96.1563 137.792 97.4924 136.474 99.1325 136.474H101.715C103.355 136.474 104.691 137.792 104.715 139.432L106.56 268.617C106.584 270.291 105.234 271.66 103.561 271.66H97.287C95.6134 271.66 94.2634 270.291 94.2873 268.617L96.1328 139.432Z" fill="#4A4A4A"/>
<rect width="27.6918" height="108.344" rx="11" transform="matrix(0.389846 0.92088 -0.891455 0.453108 170.584 118.923)" fill="#5A5A5A"/>
<rect width="27.513" height="83.9142" rx="11" transform="matrix(0.999536 0.0304712 -0.0957434 0.995406 86.0342 100.923)" fill="#4A4A4A"/>
<path d="M84.981 111.873C85.5627 105.826 90.9568 101.074 97.0291 101.259L102.54 101.427C108.612 101.612 113.063 106.664 112.481 112.711L110.824 129.938L83.3241 129.1L84.981 111.873Z" fill="#FFF2C3"/>
<rect width="27.6918" height="108.344" rx="11" transform="matrix(-0.932193 -0.361961 -0.42608 0.904685 71.9774 126.413)" fill="#4A4A4A"/>
<rect width="27.513" height="83.9142" rx="11" transform="matrix(-0.929294 0.36934 0.429296 0.903164 27.8851 200.591)" fill="#4A4A4A"/>
<path d="M138.975 30.9532C136.909 41.2414 121.847 46.894 105.332 43.5786C88.8166 40.2633 74.2346 35.2894 76.2999 25.0012C81.7069 5.68765 96.2957 3.00656 112.811 6.32191C129.326 9.63726 141.04 20.6651 138.975 30.9532Z" fill="#4A4A4A"/>
<path d="M140.345 34.2882C138.28 44.5764 122.335 49.5419 105.82 46.2265C121.024 39.0792 86.4132 36.2042 88.4785 25.9161C90.5438 15.6279 102.175 9.28649 118.69 12.6018C135.205 15.9172 142.411 24.0001 140.345 34.2882Z" fill="#4A4A4A"/>
<path d="M99.5188 54.1411C98.8122 57.6608 93.6531 60.6132 88.2382 59.5262C82.8234 58.4392 77.9296 52.4487 78.6361 48.9291C79.3427 45.4094 85.3821 45.6935 90.7969 46.7805C96.2117 47.8675 100.225 50.6215 99.5188 54.1411Z" fill="url(#paint7_linear_3_121)"/>
<path d="M106.382 55.5188C105.675 59.0385 109.295 63.7533 114.71 64.8403C120.125 65.9273 126.952 62.2896 127.658 58.77C128.365 55.2504 122.684 53.1816 117.269 52.0946C111.854 51.0076 107.088 51.9992 106.382 55.5188Z" fill="url(#paint8_linear_3_121)"/>
<path d="M114.57 33.8571C108.962 42.7263 94.3534 45.4789 80.1159 36.4768C96.8706 35.2392 75.8285 24.7021 81.4364 15.8329C87.0443 6.96363 97.9775 7.90963 112.215 16.9118C126.452 25.9139 120.178 24.9878 114.57 33.8571Z" fill="#4A4A4A"/>
<path d="M88.9287 84.0313C92.2618 85.2104 100.143 89.0063 105 87.4235" stroke="#C6B886" stroke-width="3"/>
<path d="M81.5 85.4235C91 81.4235 104.5 85.4235 109 89.4235" stroke="#BDAF8A" stroke-width="2" stroke-linecap="round"/>
<path d="M101 48.9235C97.7653 47.2542 94.3287 44.4296 88.5444 42.7585C87.8252 42.9541 83.1502 44.2255 80.8941 45.3025" stroke="#767161" stroke-opacity="0.5" stroke-width="2" stroke-linecap="round"/>
<path d="M107.5 50.9235C111.128 50.6319 114.918 48.5628 120.899 49.2535C121.487 49.7116 128.211 53.9852 128.445 54.8483" stroke="#767161" stroke-opacity="0.5" stroke-width="2" stroke-linecap="round"/>
<path d="M98.6206 53.5344C98.3491 54.8872 94.6302 55.7062 90.4154 54.8601C86.2006 54.014 82.3342 53.3711 82.6058 52.0183C82.8773 50.6655 87.1841 49.1151 91.3989 49.9612C95.6136 50.8073 98.8922 52.1816 98.6206 53.5344Z" fill="white"/>
<path d="M97.449 52.5702C97.1772 53.9239 95.547 55.2482 93.9293 54.9235C92.3115 54.5987 91.3187 52.7478 91.5905 51.3941C91.8622 50.0404 94.1166 50.4817 95 50.9235C95.3329 51.0899 97.7207 51.2165 97.449 52.5702Z" fill="#4A4A4A"/>
<path d="M109.405 55.6994C109.134 57.0522 112.249 59.2431 116.463 60.0892C120.678 60.9353 124.493 61.8343 124.765 60.4815C125.036 59.1287 121.662 56.0363 117.447 55.1902C113.232 54.3441 109.677 54.3466 109.405 55.6994Z" fill="white"/>
<path d="M116.615 56.399C116.343 57.7527 117.336 59.6035 118.953 59.9283C120.571 60.2531 122.201 58.9287 122.473 57.575C122.473 56.9235 120.937 56.2358 120 55.9235C117 54.9235 116.886 55.0452 116.615 56.399Z" fill="#4A4A4A"/>
<defs>
<linearGradient id="paint0_linear_3_121" x1="119.891" y1="50.8152" x2="110.784" y2="96.1806" gradientUnits="userSpaceOnUse">
<stop stop-color="#ECE1BA"/>
<stop offset="0.9999" stop-color="#D7CBA4"/>
<stop offset="1" stop-color="#ECE1BA" stop-opacity="0"/>
</linearGradient>
<linearGradient id="paint1_linear_3_121" x1="90.1394" y1="44.6086" x2="81.0325" y2="89.9739" gradientUnits="userSpaceOnUse">
<stop stop-color="#ECE1BA"/>
<stop offset="0.9999" stop-color="#D7CBA4"/>
<stop offset="1" stop-color="#ECE1BA" stop-opacity="0"/>
</linearGradient>
<linearGradient id="paint2_linear_3_121" x1="91.5644" y1="43.6014" x2="89.7109" y2="52.8348" gradientUnits="userSpaceOnUse">
<stop stop-color="#938C72"/>
<stop offset="1" stop-color="#ECE1BA" stop-opacity="0"/>
</linearGradient>
<linearGradient id="paint3_linear_3_121" x1="103.439" y1="57.4779" x2="94.5819" y2="101.598" gradientUnits="userSpaceOnUse">
<stop stop-color="#DDCD95" stop-opacity="0"/>
<stop offset="1" stop-color="#C0B383"/>
</linearGradient>
<linearGradient id="paint4_linear_3_121" x1="118.233" y1="49.5168" x2="116.379" y2="58.7502" gradientUnits="userSpaceOnUse">
<stop stop-color="#938C72"/>
<stop offset="1" stop-color="#ECE1BA" stop-opacity="0"/>
</linearGradient>
<linearGradient id="paint5_linear_3_121" x1="103.439" y1="57.4779" x2="98.9119" y2="80.028" gradientUnits="userSpaceOnUse">
<stop stop-color="#FAF0CD"/>
<stop offset="1" stop-color="#CBBE8F"/>
</linearGradient>
<linearGradient id="paint6_linear_3_121" x1="97.8394" y1="79.8877" x2="92.5441" y2="106.266" gradientUnits="userSpaceOnUse">
<stop stop-color="#DCD1AA"/>
<stop offset="0.9999" stop-color="#D7CBA4"/>
<stop offset="1" stop-color="#ECE1BA" stop-opacity="0"/>
</linearGradient>
<linearGradient id="paint7_linear_3_121" x1="90.7969" y1="46.7805" x2="88.2382" y2="59.5262" gradientUnits="userSpaceOnUse">
<stop stop-color="#C3BA9A" stop-opacity="0"/>
<stop offset="1" stop-color="#CFCBB6"/>
</linearGradient>
<linearGradient id="paint8_linear_3_121" x1="117.269" y1="52.0946" x2="114.71" y2="64.8403" gradientUnits="userSpaceOnUse">
<stop stop-color="#C3BA9A" stop-opacity="0"/>
<stop offset="1" stop-color="#CFCBB6"/>
</linearGradient>
</defs>
</svg>
