<svg width="281" height="521" viewBox="0 0 281 521" fill="none" xmlns="http://www.w3.org/2000/svg">
<ellipse cx="100.424" cy="119.577" rx="47.8944" ry="22.7885" fill="#4A4A4A"/>
<ellipse cx="101" cy="104" rx="24" ry="12" fill="#E7E7E7"/>
<rect x="86" y="59" width="30" height="55" fill="#ECE1BA"/>
<path d="M132.867 40.4826C132.867 58.6218 123.208 72.9771 101.596 72.9771C79.9829 72.9771 70.1492 60.5435 70.1492 42.4043C64.5588 21.0907 83.2519 3.62053 101.246 3.62053C120.987 3.62053 137.409 21.4401 132.867 40.4826Z" fill="#4A4A4A"/>
<ellipse cx="101.596" cy="39.9585" rx="27.6029" ry="25.6812" fill="#ECE1BA"/>
<rect x="79.2337" y="24.41" width="44.3742" height="54.8563" fill="#ECE1BA"/>
<ellipse cx="101.421" cy="76.6459" rx="22.1871" ry="22.5365" fill="#ECE1BA"/>
<path d="M130.247 60.748C124.5 92 130.247 87.5 117.319 88.5C110.179 88.5 104.391 70.9754 104.391 60.748C104.391 50.5206 110.179 42.2296 117.319 42.2296C124.459 42.2296 130.247 50.5206 130.247 60.748Z" fill="url(#paint0_linear_3_179)"/>
<path d="M74 60.5184C79 91.5 74 87.2704 86.9279 88.2704C94.0678 88.2704 99.8558 70.7458 99.8558 60.5184C99.8558 50.291 94.0678 42 86.9279 42C79.788 42 74 50.291 74 60.5184Z" fill="url(#paint1_linear_3_179)"/>
<path d="M98.5 43C96.5 43.5 90.5 41.5 85 41.5C82.5 43 77.3333 45.8333 77 47C81.8333 48.8333 92.4 51.8 96 49C99.6 46.2 99 44 98.5 43Z" fill="url(#paint2_linear_3_179)"/>
<path d="M118.5 88C123 95.5 115.479 97 102.5 97C89.5213 97 92.5 93 87 85C59 46.5 85 47.5 102.5 52C115.479 52 145.5 40.5 118.5 88Z" fill="url(#paint3_linear_3_179)"/>
<path d="M105 43C104.738 45.6152 107.565 43.72 111.5 42.5C115 42 115.5 41.5 118 41.5C119.5 42 129.5 45.5 126.254 47.268C121.42 49.1013 110.854 52.068 107.254 49.268C103.654 46.468 104.5 44.1667 105 43Z" fill="url(#paint4_linear_3_179)"/>
<ellipse cx="101.246" cy="16.7232" rx="7.33747" ry="12.5785" fill="black"/>
<path d="M114 81C111.5 83.5 106.5 83.5 102.5 83C94.4919 83 90 82 89 80.5C89 76.9101 94.9919 72 103 72C111.008 72 114 77.4101 114 81Z" fill="#DACFA8"/>
<path d="M106.25 63.458C106.25 69.7861 109.505 75.6104 102.452 74.916C95.6697 75.784 98.6539 69.7861 98.6539 63.458C98.6539 57.1299 101.095 52 102.452 52C103.808 52 106.25 57.1299 106.25 63.458Z" fill="url(#paint5_linear_3_179)"/>
<path d="M125 83.5C123.5 98 119.484 97.2424 101.421 98C89.5 98.5 76.5 95 78.5 82.5C78.5 75.0706 94.5 82.4265 101.421 79C107.5 81.4265 125 76.0706 125 83.5Z" fill="url(#paint6_linear_3_179)"/>
<path d="M47.8944 126.861C47.8944 115.689 57.4856 106.929 68.6112 107.938L98.707 110.669C99.8491 110.772 100.998 110.772 102.141 110.669L132.236 107.938C143.362 106.929 152.953 115.689 152.953 126.861V303.356C152.953 313.85 144.447 322.356 133.953 322.356H66.8944C56.401 322.356 47.8944 313.85 47.8944 303.356V126.861Z" fill="#E6E6E6"/>
<rect x="60.2542" y="333.943" width="29.3546" height="182.308" fill="#ECE1BA"/>
<rect x="111.239" y="333.943" width="29.3546" height="182.308" fill="#ECE1BA"/>
<path d="M47.8944 296.091H93.4714V508.526H57.9368L47.8944 296.091Z" fill="#3A3A3A"/>
<path d="M108.921 296.091H154.498L146.773 508.526H108.921V296.091Z" fill="#3A3A3A"/>
<path d="M48.2848 278.324H156.816V321.777L153.715 336.261H49.4476L47.1219 321.777L48.2848 278.324Z" fill="#3A3A3A"/>
<path d="M37.8249 121.118C37.3864 117.485 39.4686 114.018 42.8813 112.698L67.1355 103.317C72.3778 101.289 78.0215 105.158 78.0215 110.778V298.066C78.0215 304.892 70.0234 308.582 64.8301 304.153L47.0165 288.96C45.1339 287.354 44.1002 284.968 44.2168 282.496L47.8628 205.221C47.8838 204.775 47.8675 204.329 47.814 203.886L37.8249 121.118Z" fill="#4A4A4A"/>
<path d="M163.795 121.118C164.234 117.485 162.151 114.018 158.739 112.698L134.484 103.317C129.242 101.289 123.598 105.158 123.598 110.778V298.066C123.598 304.892 131.597 308.582 136.79 304.153L154.603 288.96C156.486 287.354 157.52 284.968 157.403 282.496L153.757 205.221C153.736 204.775 153.752 204.329 153.806 203.886L163.795 121.118Z" fill="#4A4A4A"/>
<path d="M96.5613 520.5C96.5613 515.89 94.1604 511.469 89.8867 508.21C85.613 504.95 79.8167 508.21 73.7728 508.21C67.7289 508.21 61.9326 504.95 57.6589 508.21C53.3853 511.469 50.9843 515.89 50.9843 520.5L73.7728 520.5H96.5613Z" fill="#4A4A4A"/>
<path d="M149.863 520.5C149.863 515.89 147.462 511.469 143.189 508.21C138.915 504.95 133.119 506.595 127.075 506.595C121.031 506.595 115.234 504.95 110.961 508.21C106.687 511.469 104.286 515.89 104.286 520.5L127.075 520.5H149.863Z" fill="#4A4A4A"/>
<rect width="27.6918" height="108.344" rx="11" transform="matrix(0.53299 -0.846122 0.881227 0.472694 140 138.431)" fill="#4A4A4A"/>
<rect width="27.513" height="83.9142" rx="11" transform="matrix(0.929294 0.36934 -0.429296 0.903164 255.024 104)" fill="#4A4A4A"/>
<rect width="27.6918" height="108.344" rx="11" transform="matrix(-0.932193 -0.361961 -0.42608 0.904685 71.9774 121.49)" fill="#4A4A4A"/>
<rect width="27.513" height="83.9142" rx="11" transform="matrix(-0.929294 0.36934 0.429296 0.903164 27.8851 195.668)" fill="#4A4A4A"/>
<path d="M100.279 113.632L76.5643 124.747L77.5981 100.537L100.279 113.632Z" fill="white"/>
<path d="M100.498 113.66L124.697 124.754L123.663 100.544L100.498 113.66Z" fill="white"/>
<path d="M95.784 130.041C97.4637 134.223 103.384 134.223 105.064 130.041L108.371 121.806C109.691 118.521 107.272 114.942 103.731 114.942H97.1162C93.5759 114.942 91.157 118.521 92.4765 121.806L95.784 130.041Z" fill="#4A4A4A"/>
<path d="M97.5361 276.568C98.3573 279.484 102.49 279.484 103.311 276.568L106.04 266.881C106.579 264.967 105.141 263.067 103.152 263.067H97.6954C95.707 263.067 94.2687 264.967 94.8078 266.881L97.5361 276.568Z" fill="#4A4A4A"/>
<path d="M96.1328 134.508C96.1563 132.868 97.4924 131.551 99.1325 131.551H101.715C103.355 131.551 104.691 132.868 104.715 134.508L106.56 263.694C106.584 265.367 105.234 266.737 103.561 266.737H97.287C95.6134 266.737 94.2634 265.367 94.2873 263.694L96.1328 134.508Z" fill="#4A4A4A"/>
<path d="M132.12 19C132.12 29.4934 118.465 38 101.62 38C84.7757 38 69.5 35.9934 69.5 25.5C71 5.5 84.7757 0 101.62 0C118.465 0 132.12 8.50659 132.12 19Z" fill="#4A4A4A"/>
<path d="M134.12 22C134.12 32.4934 119.465 40.5 102.62 40.5C116.12 30.5 81.6204 34.4934 81.6204 24C81.6204 13.5066 91.7757 5 108.62 5C125.465 5 134.12 11.5066 134.12 22Z" fill="#4A4A4A"/>
<path d="M98 49.5C98 53.0899 93.5228 57 88 57C82.4772 57 76.5 52.0899 76.5 48.5C76.5 44.9101 82.4772 44 88 44C93.5228 44 98 45.9101 98 49.5Z" fill="url(#paint7_linear_3_179)"/>
<path d="M105 49.5C105 53.0899 109.477 57 115 57C120.523 57 126.5 52.0899 126.5 48.5C126.5 44.9101 120.523 44 115 44C109.477 44 105 45.9101 105 49.5Z" fill="url(#paint8_linear_3_179)"/>
<path d="M108.764 26.6504C105.012 36.4499 91.2308 42.0239 75.5 36C91.6834 31.4891 68.979 25.2995 72.7315 15.5C76.4841 5.70052 87.3896 4.47616 103.12 10.5C118.851 16.5239 112.517 16.8509 108.764 26.6504Z" fill="#4A4A4A"/>
<path d="M117 79.307C117.059 81.6549 110.719 87.5725 103.254 86.9551C95.9442 86.9551 89 80.9409 89 78.829C89 76.717 95.9442 79.307 103.254 79.307C110.564 79.307 117 77.195 117 79.307Z" fill="#895D5D"/>
<path d="M117 78.5809C117.059 79.6244 110.719 82.2545 103.254 81.9801C95.9442 81.9801 89 79.3071 89 78.3684C89 77.4298 95.9442 78.5809 103.254 78.5809C110.564 78.5809 117 77.6422 117 78.5809Z" fill="white"/>
<path d="M98 42.5C94.5 41.5 91 41 85 40.5C84.3333 40.8333 80 43 78 44.5" stroke="#767161" stroke-opacity="0.5" stroke-width="2" stroke-linecap="round"/>
<path d="M106 43.5C109.5 42.5 112 41 118 40.5C118.667 40.8333 126.1 43.7 126.5 44.5" stroke="#767161" stroke-opacity="0.5" stroke-width="2" stroke-linecap="round"/>
<path d="M97 49.082C97 50.4618 93.2989 50.7475 89 50.7475C84.7011 50.7475 81 52.1273 81 50.7475C81 49.3677 84.9174 47 89.2162 47C93.5151 47 97 47.7022 97 49.082Z" fill="white"/>
<path d="M91.9754 48.5C91.9754 49.8807 90.6501 50.5 89 50.5C87.3499 50.5 86 49.8807 86 48.5C86 47.1193 88 47 88.9877 47C92.4734 47 91.9754 47.1193 91.9754 48.5Z" fill="#4A4A4A"/>
<path d="M108 49.082C108 50.4618 111.485 51 115.784 51C120.083 51 124 52.1273 124 50.7475C124 49.3677 120.083 47 115.784 47C111.485 47 108 47.7022 108 49.082Z" fill="white"/>
<path d="M113.025 48.5C113.025 49.8807 114.362 50.5 116.012 50.5C117.662 50.5 119 49.8807 119 48.5C119 47.1193 117 47 116.012 47C112.527 47 113.025 47.1193 113.025 48.5Z" fill="#4A4A4A"/>
<rect x="243" y="83" width="29" height="35" rx="9" fill="#ECE1BA"/>
<rect x="266" y="72" width="11" height="35" rx="5.5" fill="#ECE1BA"/>
<defs>
<linearGradient id="paint0_linear_3_179" x1="117.319" y1="42.2296" x2="117.319" y2="88.5" gradientUnits="userSpaceOnUse">
<stop stop-color="#ECE1BA"/>
<stop offset="0.9999" stop-color="#D7CBA4"/>
<stop offset="1" stop-color="#ECE1BA" stop-opacity="0"/>
</linearGradient>
<linearGradient id="paint1_linear_3_179" x1="86.9279" y1="42" x2="86.9279" y2="88.2704" gradientUnits="userSpaceOnUse">
<stop stop-color="#ECE1BA"/>
<stop offset="0.9999" stop-color="#D7CBA4"/>
<stop offset="1" stop-color="#ECE1BA" stop-opacity="0"/>
</linearGradient>
<linearGradient id="paint2_linear_3_179" x1="88.1268" y1="40.732" x2="88.1268" y2="50.1496" gradientUnits="userSpaceOnUse">
<stop stop-color="#938C72"/>
<stop offset="1" stop-color="#ECE1BA" stop-opacity="0"/>
</linearGradient>
<linearGradient id="paint3_linear_3_179" x1="102.5" y1="52" x2="102.5" y2="97" gradientUnits="userSpaceOnUse">
<stop stop-color="#DDCD95" stop-opacity="0"/>
<stop offset="1" stop-color="#C0B383"/>
</linearGradient>
<linearGradient id="paint4_linear_3_179" x1="115.127" y1="41" x2="115.127" y2="50.4176" gradientUnits="userSpaceOnUse">
<stop stop-color="#938C72"/>
<stop offset="1" stop-color="#ECE1BA" stop-opacity="0"/>
</linearGradient>
<linearGradient id="paint5_linear_3_179" x1="102.5" y1="52" x2="102.5" y2="75" gradientUnits="userSpaceOnUse">
<stop stop-color="#FAF0CD"/>
<stop offset="1" stop-color="#CBBE8F"/>
</linearGradient>
<linearGradient id="paint6_linear_3_179" x1="101.421" y1="75.0735" x2="101.421" y2="101.978" gradientUnits="userSpaceOnUse">
<stop stop-color="#DCD1AA"/>
<stop offset="0.9999" stop-color="#D7CBA4"/>
<stop offset="1" stop-color="#ECE1BA" stop-opacity="0"/>
</linearGradient>
<linearGradient id="paint7_linear_3_179" x1="88" y1="44" x2="88" y2="57" gradientUnits="userSpaceOnUse">
<stop stop-color="#C3BA9A" stop-opacity="0"/>
<stop offset="1" stop-color="#CFCBB6"/>
</linearGradient>
<linearGradient id="paint8_linear_3_179" x1="115" y1="44" x2="115" y2="57" gradientUnits="userSpaceOnUse">
<stop stop-color="#C3BA9A" stop-opacity="0"/>
<stop offset="1" stop-color="#CFCBB6"/>
</linearGradient>
</defs>
</svg>
